<?xml version="1.0" standalone="no"?>
<!DOCTYPE svg PUBLIC "-//W3C//DTD SVG 20010904//EN"
 "http://www.w3.org/TR/2001/REC-SVG-20010904/DTD/svg10.dtd">
<svg version="1.0" xmlns="http://www.w3.org/2000/svg"
 width="700.000000pt" height="700.000000pt" viewBox="0 0 700.000000 700.000000"
 preserveAspectRatio="xMidYMid meet">
<metadata>
Created by potrace 1.14, written by Peter Selinger 2001-2017
</metadata>
<g transform="translate(0.000000,700.000000) scale(0.100000,-0.100000)"
fill="#000000" stroke="none">
<path d="M488 6985 c-214 -52 -388 -213 -461 -425 l-22 -65 -2 -2970 c-1
-2503 1 -2980 12 -3035 20 -92 86 -215 153 -286 71 -73 109 -102 192 -142 137
-66 -106 -62 3160 -59 1631 1 2978 6 2993 10 109 30 251 111 309 176 48 53 97
126 123 182 59 130 56 -69 53 3164 l-3 2960 -27 73 c-71 196 -215 339 -408
405 l-65 22 -2975 2 c-2503 1 -2984 -1 -3032 -12z"/>
</g>
</svg>
